<svg height="512pt" viewBox="0 -4 512.00101 512" width="512pt" xmlns="http://www.w3.org/2000/svg"><path d="m216.949219 390.507812h-182.238281c-19.167969 0-34.710938-15.539062-34.710938-34.710937v-321.085937c0-19.167969 15.542969-34.710938 34.710938-34.710938h390.507812c19.171875 0 34.714844 15.542969 34.714844 34.710938v192.390624zm0 0" fill="#b0d3f0"/><path d="m121.492188 86.78125v52.066406h-78.101563v-44.171875c.238281-4.566406 4.109375-8.085937 8.675781-7.894531zm0 0" fill="#ff5364"/><path d="m416.542969 94.675781v44.171875h-295.050781v-52.066406h286.371093c4.570313-.191406 8.441407 3.328125 8.679688 7.894531zm0 0" fill="#e6e7e8"/><path d="m121.492188 138.847656h295.050781v52.066406h-295.050781zm0 0" fill="#fff"/><path d="m121.492188 190.914062h295.050781v52.070313h-295.050781zm0 0" fill="#e6e7e8"/><path d="m121.492188 242.984375h295.050781v52.066406h-295.050781zm0 0" fill="#fff"/><path d="m121.492188 295.050781h295.050781v52.070313h-295.050781zm0 0" fill="#e6e7e8"/><path d="m121.492188 295.050781v52.070313h-69.425782c-4.566406.191406-8.4375-3.332032-8.675781-7.898438v-44.171875zm0 0" fill="#ff5364"/><path d="m43.390625 138.847656h78.101563v52.066406h-78.101563zm0 0" fill="#fb7b76"/><path d="m43.390625 190.914062h78.101563v52.070313h-78.101563zm0 0" fill="#ff5364"/><path d="m43.390625 242.984375h78.101563v52.066406h-78.101563zm0 0" fill="#fb7b76"/><path d="m69.421875 52.066406h-17.355469c-4.792968 0-8.675781-3.882812-8.675781-8.675781s3.882813-8.679687 8.675781-8.679687h17.355469c4.792969 0 8.679687 3.886718 8.679687 8.679687s-3.886718 8.675781-8.679687 8.675781zm0 0" fill="#c03a2b"/><path d="m121.492188 52.066406h-17.355469c-4.792969 0-8.679688-3.882812-8.679688-8.675781s3.886719-8.679687 8.679688-8.679687h17.355469c4.792968 0 8.675781 3.886718 8.675781 8.679687s-3.882813 8.675781-8.675781 8.675781zm0 0" fill="#f0c419"/><path d="m190.914062 52.066406h-34.710937c-4.792969 0-8.675781-3.882812-8.675781-8.675781s3.882812-8.679687 8.675781-8.679687h34.710937c4.792969 0 8.679688 3.886718 8.679688 8.679687s-3.886719 8.675781-8.679688 8.675781zm0 0" fill="#24ae5f"/><path d="m416.542969 52.066406h-190.914063c-4.792968 0-8.679687-3.882812-8.679687-8.675781s3.886719-8.679687 8.679687-8.679687h190.914063c4.792969 0 8.675781 3.886718 8.675781 8.679687s-3.882812 8.675781-8.675781 8.675781zm0 0" fill="#2c2f38"/><path d="m438.585938 201.328125c-62.847657-41.832031-146.089844-35.570313-201.96875 15.199219-55.875 50.769531-70.066407 133.035156-34.429688 199.589844 35.636719 66.554687 111.96875 100.347656 185.199219 81.988281s124.589843-84.167969 124.613281-159.664063c.191406-55.15625-27.40625-106.695312-73.414062-137.113281zm0 0" fill="#90bae1"/><path d="m347.117188 173.558594v164.882812l-116.542969 116.542969c-47.183594-47.128906-61.3125-118.050781-35.792969-179.667969 25.515625-61.613281 85.648438-101.78125 152.335938-101.757812zm0 0" fill="#f0c419"/><path d="m512 338.441406c.042969 31.160156-8.804688 61.6875-25.511719 87.996094l-139.371093-87.996094 91.46875-137.113281c45.890624 30.523437 73.453124 81.996094 73.414062 137.113281zm0 0" fill="#24ae5f"/><path d="m486.488281 426.4375c-26.722656 42.390625-71.285156 70.316406-121.085937 75.871094-49.800782 5.554687-99.425782-11.859375-134.828125-47.324219l116.542969-116.542969zm0 0" fill="#ff5364"/><path d="m438.585938 201.328125-91.46875 137.113281v-164.882812c32.574218-.050782 64.421874 9.621094 91.46875 27.769531zm0 0" fill="#2980ba"/></svg>